<?xml version="1.0" standalone="no"?>
<!DOCTYPE svg PUBLIC "-//W3C//DTD SVG 20010904//EN"
 "http://www.w3.org/TR/2001/REC-SVG-20010904/DTD/svg10.dtd">
<svg version="1.0" xmlns="http://www.w3.org/2000/svg"
 width="250.000000pt" height="250.000000pt" viewBox="0 0 250.000000 250.000000"
 preserveAspectRatio="xMidYMid meet">
<metadata>
Created by potrace 1.11, written by Peter Selinger 2001-2013
</metadata>
<g transform="translate(0.000000,250.000000) scale(0.100000,-0.100000)"
fill="#000000" stroke="none">
<path d="M1148 2495 c-10 -11 -79 -35 -74 -26 4 5 2 12 -3 15 -5 3 -12 -1 -15
-10 -4 -10 -13 -13 -26 -10 -11 3 -29 9 -40 12 -14 4 -20 1 -20 -10 0 -17 -36
-40 -50 -31 -5 3 -13 -2 -18 -11 -6 -10 -16 -15 -25 -11 -12 4 -14 2 -10 -10
5 -12 3 -14 -7 -8 -8 5 -11 4 -7 -2 4 -6 -2 -18 -13 -28 -10 -9 -17 -22 -14
-29 3 -7 -13 -35 -36 -62 -22 -27 -40 -52 -40 -57 0 -4 -15 -32 -34 -61 -19
-30 -36 -64 -38 -77 -2 -13 -9 -30 -15 -37 -17 -18 -12 -265 6 -286 10 -12 10
-21 -3 -47 -27 -54 -13 -181 17 -162 6 3 7 1 3 -5 -4 -6 3 -30 15 -53 17 -34
18 -43 7 -51 -10 -7 -8 -8 5 -4 11 4 20 0 24 -12 3 -9 12 -24 20 -33 7 -9 21
-47 32 -85 18 -68 28 -94 56 -144 7 -14 16 -46 20 -73 7 -42 5 -47 -12 -47
-61 0 -113 -47 -108 -98 2 -30 -12 -37 -205 -102 -194 -66 -315 -113 -374
-146 l-46 -26 21 -36 c157 -262 415 -471 699 -565 146 -48 233 -61 410 -60
153 0 192 5 337 38 53 12 174 60 247 98 200 103 369 258 494 451 l52 81 -22
19 c-63 51 -389 186 -465 192 -24 2 -55 10 -70 19 -16 9 -20 14 -10 11 9 -3
17 -2 17 3 0 5 -12 12 -26 15 -15 4 -47 22 -71 41 -47 36 -136 71 -153 60 -5
-3 -10 -24 -10 -46 0 -57 -14 -77 -73 -105 -29 -14 -45 -23 -37 -21 8 2 24 1
34 -3 30 -10 -91 -52 -140 -48 l-39 3 35 22 34 22 -59 -4 c-65 -5 -60 9 7 20
21 4 40 10 43 14 2 5 -7 6 -20 3 -34 -6 -32 14 2 23 15 3 30 10 33 13 3 4 25
18 50 31 25 13 53 31 64 40 21 18 46 64 46 83 0 19 -64 16 -84 -5 -10 -9 -28
-18 -42 -18 -13 -1 -30 -2 -36 -3 -18 -3 -47 13 -77 40 -14 14 -34 27 -43 30
-29 9 -22 52 14 84 31 29 32 30 13 45 -11 8 -26 15 -32 15 -21 0 -15 18 10 26
39 13 61 12 117 -8 78 -27 85 -27 88 2 4 39 -20 75 -49 76 -14 1 -31 4 -38 8
-15 10 -13 -5 4 -28 20 -27 10 -37 -23 -21 -15 8 -51 16 -80 19 -50 4 -81 14
-54 17 7 1 17 3 22 4 6 1 15 3 20 4 18 2 11 50 -10 71 -11 11 -20 23 -20 27 0
4 -10 17 -22 30 -20 22 -21 26 -10 112 9 76 9 113 0 150 -1 3 4 36 11 73 7 37
11 79 7 92 -7 28 13 49 42 44 11 -2 28 4 38 14 11 9 40 19 67 21 26 3 59 15
73 26 25 20 60 19 47 -2 -3 -6 -1 -7 6 -3 41 26 145 -134 156 -240 4 -32 8
-66 10 -74 3 -8 5 -59 7 -112 2 -92 10 -120 22 -80 3 9 2 31 -3 49 -7 25 -4
38 17 74 23 40 26 41 33 21 5 -12 9 -38 11 -56 2 -38 18 -39 18 -2 0 45 -13
86 -26 86 -18 0 -18 9 5 53 15 30 18 53 15 115 -3 75 -5 88 -19 162 -16 89
-75 180 -190 295 -65 65 -99 90 -178 130 -85 43 -107 49 -166 51 -38 2 -71 1
-73 -1z m51 -528 c6 -8 9 -16 6 -18 -2 -3 -6 -26 -8 -52 -6 -58 -12 -66 -28
-35 -15 29 -20 68 -8 68 5 0 9 11 9 25 0 28 12 32 29 12z m-67 -59 c-7 -7 -12
-8 -12 -2 0 14 12 26 19 19 2 -3 -1 -11 -7 -17z m85 -500 c-3 -8 -6 -5 -6 6
-1 11 2 17 5 13 3 -3 4 -12 1 -19z m-96 -727 c63 -21 132 -47 154 -59 57 -29
158 -135 193 -201 40 -76 71 -230 52 -261 -14 -23 -20 -7 -24 68 -5 87 -39
199 -72 238 -98 116 -164 160 -311 203 -98 29 -174 64 -198 91 -17 19 -12 18
36 -9 31 -17 108 -49 170 -70z m337 -63 c17 -17 15 -55 -2 -61 -25 -10 -53 42
-33 62 14 14 20 14 35 -1z"/>
<path d="M1441 594 c0 -11 3 -14 6 -6 3 7 2 16 -1 19 -3 4 -6 -2 -5 -13z"/>
<path d="M1276 1890 c-23 -39 -20 -65 9 -84 16 -10 25 -26 25 -42 0 -14 4 -22
10 -19 6 3 11 -1 11 -9 3 -41 13 -52 46 -59 30 -6 77 9 69 21 -3 5 2 19 11 32
14 20 17 21 25 6 11 -19 72 -23 66 -3 -2 6 -30 24 -61 39 -81 39 -76 50 23 50
l44 0 -23 19 c-31 25 -96 42 -153 41 -35 -2 -53 3 -67 17 -18 18 -19 18 -35
-9z"/>
<path d="M1290 1487 c-24 -10 -24 -11 -3 -14 12 -2 27 -11 33 -19 17 -20 30
-18 30 6 0 27 -29 40 -60 27z"/>
</g>
</svg>
